<?xml version="1.0" encoding="utf-8"?>
<!-- Generator: Adobe Illustrator 19.0.0, SVG Export Plug-In . SVG Version: 6.00 Build 0)  -->
<svg version="1.1" id="Layer_1" xmlns="http://www.w3.org/2000/svg" xmlns:xlink="http://www.w3.org/1999/xlink" x="0px" y="0px"
	 viewBox="0 0 86.1 28.9" style="enable-background:new 0 0 86.1 28.9;" xml:space="preserve">
<style type="text/css">
	.st0{fill:#CCCBCB;stroke:#000000;stroke-width:1.3909;stroke-miterlimit:10;}
	.st1{fill:#C49A6C;stroke:#000000;stroke-width:1.3882;stroke-miterlimit:10;}
</style>
<path id="XMLID_5_" class="st0" d="M13.3,26.5L13.3,26.5C6.8,26.3,1.6,21.2,1.7,15.1l0.1-2.7c0.1-6.1,5.5-11.1,12-11l0,0
	c6.5,0.1,11.7,5.3,11.6,11.4l-0.1,2.7C25.2,21.6,19.8,26.6,13.3,26.5z"/>
<path id="XMLID_7_" class="st1" d="M56.4,19.6c-4.9,0-40.2,0.2-43.8,0.2c-3.6,0-4.3-12.6-0.1-12.6s40.4,0.3,43.9,0.4
	C60.1,7.8,59.9,19.6,56.4,19.6z"/>
</svg>
