<?xml version="1.0" encoding="utf-8"?>
<!-- Generator: Adobe Illustrator 19.0.0, SVG Export Plug-In . SVG Version: 6.00 Build 0)  -->
<svg version="1.1" id="Layer_1" xmlns="http://www.w3.org/2000/svg" xmlns:xlink="http://www.w3.org/1999/xlink" x="0px" y="0px"
	 viewBox="0 0 500 400" style="enable-background:new 0 0 500 400;" xml:space="preserve">
<style type="text/css">
	.st0{fill:#29ABE2;}
	.st1{fill:#FF7BAC;}
	.st2{fill:#FFFFFF;}
	.st3{fill:#F16522;}
	.st4{fill:none;stroke:#EB008B;stroke-miterlimit:10;}
</style>
<rect id="XMLID_1_" class="st0" width="500" height="400"/>
<g id="XMLID_9_">
	<g id="XMLID_94_">
		<g id="XMLID_2_">
			<g id="XMLID_5_">
				<path id="XMLID_28_" class="st1" d="M468.5,78.5c-2.6,6.5-13.4,34.5-27.3,81.4c-17.2,47.7-46,80.6-84.3,93.1
					c-9.4,3.5-20,3.7-29.7-0.5c9.1-1.6,17.2-6.3,23.1-12.9c28.1-28.9,38.3-71.4,31.3-121.7c-1.3-6.8-2.6-13.2-3.7-19.2
					c2.1-0.6,4.3-1.2,6.4-1.7c48.1-9.2,77-17.1,83.8-19l1-0.9c0,0.1-0.1,0.3-0.3,0.7c0.5-0.1,0.8-0.2,0.8-0.2L468.5,78.5z"/>
				<path id="XMLID_27_" class="st2" d="M376.5,117.9c7,50.2-3.2,92.7-31.3,121.7c-5.9,6.6-13.9,11.4-23.1,12.9
					c-3.1-1.3-6.2-3.1-9-5.4c5.6-4.4,9.8-10.3,12.4-16.8c14.4-32.3,12.3-69.6-4.5-108.4c14.7-9.8,32.1-17.6,51.8-23.1
					C374,104.8,375.2,111.2,376.5,117.9z"/>
				<path id="XMLID_26_" class="st2" d="M372.9,98.7c-19.8,5.5-37.2,13.3-51.8,23.1c-2.4-5.5-5-11-8-16.6c-4.3-7.1-8.3-13.8-11.9-20
					c35.7-28.6,56.2-47.8,61.1-52.4l0.5-1.3c0,0,0,0.3,0.1,0.8c0.4-0.4,0.6-0.5,0.6-0.5l-0.5,1.3C363.5,39.1,366.1,62,372.9,98.7z"
					/>
				<path id="XMLID_25_" class="st1" d="M321,121.9c16.8,38.8,18.9,76.2,4.5,108.4c-2.6,6.5-6.8,12.4-12.4,16.8
					c-5.8-4.6-10.9-11-14.8-19.7c-2.2-1.2-4.2-2.6-6-3.9c4.5-6.6,6.9-14.2,7-22c1.1-17.3-1.9-34.4-8.8-51
					C298.7,139.6,308.9,130,321,121.9z"/>
				<path id="XMLID_24_" class="st2" d="M313.2,247.1c2.9,2.3,5.9,4.1,9,5.4c-5.2,0.9-10.8,0.7-16.6-0.7
					C308.3,250.5,310.9,248.9,313.2,247.1z"/>
				<path id="XMLID_23_" class="st2" d="M321,121.9c-12.1,8.1-22.4,17.7-30.5,28.6c-4.8-11.6-11.5-22.8-19.9-33.8
					c7.4-9.7,16.2-19,26.3-28c1.4-1.1,2.9-2.3,4.2-3.4c3.6,6.2,7.6,12.9,11.9,20C316,110.8,318.7,116.4,321,121.9z"/>
				<path id="XMLID_22_" class="st2" d="M298.4,227.4c3.9,8.7,9,15.2,14.8,19.7c-2.3,1.8-4.8,3.4-7.6,4.7c-6.4-1.6-13.1-4.8-19.7-10
					c-5.7-0.2-10.8-1.1-15.4-2.6c9.8-3.1,17-8.8,21.8-15.7C294.2,224.8,296.2,226.2,298.4,227.4z"/>
				<path id="XMLID_21_" class="st1" d="M285.9,241.8c6.6,5.2,13.2,8.4,19.7,10c-9.4,4.4-21.3,5.4-35,1c-13.6,4.5-25.5,3.5-34.9-0.9
					c6.5-1.6,13.3-4.9,19.9-10.2c5.5-0.2,10.4-1.1,14.9-2.5C275.1,240.7,280.2,241.6,285.9,241.8z"/>
				<path id="XMLID_20_" class="st2" d="M290.5,150.5c6.9,16.5,9.9,33.6,8.8,51c-0.1,7.8-2.5,15.4-7,22
					c-13.3-9.8-18.7-22.8-18.4-35.1c0.2-5.9,1.7-11.6,4.2-16.8C281.5,164.1,285.7,157.1,290.5,150.5z"/>
				<path id="XMLID_19_" class="st2" d="M252.9,145.7c4.6-9.9,10.5-19.5,17.7-28.9c8.4,10.9,15.1,22.2,19.9,33.8
					c-4.9,6.6-9,13.6-12.3,21.1c-2.6,5.2-4.1,10.9-4.2,16.8h-0.3c0.1-7.2-1.9-14.1-5.4-20.3C264.1,159.9,259,152.5,252.9,145.7z"/>
				<path id="XMLID_18_" class="st2" d="M251.6,225c15.5-10.2,22.1-23.8,22.2-36.7h0.3c-0.4,12.3,5.1,25.3,18.4,35.1
					c-4.8,7-12,12.6-21.8,15.7c-8.3-2.7-14.8-7.3-19.5-12.9C251.2,225.8,251.4,225.4,251.6,225z"/>
				<path id="XMLID_17_" class="st1" d="M271.3,262c27.8-4.6,48.3,2.1,55.6,11.4c16.7,18.7,11.5,40.7-12.7,63.3
					c-25.8,21.2-39.5,23.8-42.6,26.9v0.7c0,0-0.1-0.1-0.4-0.4c-0.2,0.2-0.4,0.4-0.4,0.4v-0.7c-3.1-3.2-16.8-5.7-42.6-26.9
					c-24.2-22.7-29.3-44.7-12.7-63.3C222.9,264,243.4,257.4,271.3,262z"/>
				<path id="XMLID_16_" class="st1" d="M270.6,116.8c-7.5-9.7-16.3-19.1-26.5-28.1c-1.4-1.1-2.7-2.2-4.1-3.2
					c17.9-30.4,27.6-49.8,30.2-55V29c0,0,0.1,0.2,0.4,0.7c0.2-0.5,0.4-0.7,0.4-0.7v1.4c2.6,5.2,12.3,24.5,30.1,54.9
					c-1.4,1.1-2.8,2.2-4.2,3.4C286.8,97.7,278,107.1,270.6,116.8z"/>
				<path id="XMLID_15_" class="st2" d="M228.2,105.3c4.3-7.1,8.3-13.7,11.9-19.9c1.3,1.1,2.7,2.1,4.1,3.2c10.2,9,19,18.4,26.5,28.1
					c-7.2,9.4-13.1,19-17.7,28.9c-8.8-10-19.6-18.5-32-25.6C223.2,115.2,225.6,110.3,228.2,105.3z"/>
				<path id="XMLID_14_" class="st1" d="M215.7,230.3c-14.6-32.8-12.2-70.7,5.3-110.2c12.4,7.1,23.1,15.6,32,25.6
					c-8.4,18.1-12.2,37-10.8,56.1c0.2,8.8,3.2,17.4,9,24.5c-4.5,11.3-11.2,19-18.9,23.7C224.5,245.4,218.9,238.3,215.7,230.3z"/>
				<path id="XMLID_13_" class="st2" d="M232.2,250c7.7-4.7,14.4-12.5,18.9-23.7c4.7,5.7,11.1,10.3,19.5,12.9
					c-4.4,1.4-9.4,2.3-14.9,2.5c-6.7,5.3-13.4,8.6-19.9,10.2C234.5,251.3,233.3,250.6,232.2,250z"/>
				<path id="XMLID_12_" class="st2" d="M251.1,226.2c-5.8-7-8.8-15.7-9-24.5c-1.3-19.1,2.5-38,10.8-56.1c6,6.8,11.2,14.3,15.4,22.4
					c3.5,6.1,5.5,13.1,5.4,20.3c-0.1,12.9-6.6,26.5-22.2,36.7C251.4,225.4,251.2,225.8,251.1,226.2z"/>
				<path id="XMLID_11_" class="st3" d="M235.7,251.9c-3.4,0.8-6.7,1.2-9.9,1.2c2.2-0.8,4.3-1.9,6.3-3.1
					C233.3,250.6,234.5,251.3,235.7,251.9z"/>
				<path id="XMLID_10_" class="st2" d="M215.7,230.3c3.2,8,8.8,15.1,16.5,19.7c-2,1.3-4.1,2.3-6.3,3.1c-11.8,0-22.2-5.2-29.5-13.4
					c-28.3-28.8-38.6-71.3-31.8-121.5c1.2-6.1,2.3-12,3.3-17.5c20,4.2,37.8,10.7,53.1,19.4C203.5,159.6,201.1,197.5,215.7,230.3z"/>
				<path id="XMLID_8_" class="st2" d="M240.1,85.4c-3.6,6.2-7.6,12.8-11.9,19.9c-2.6,5-5,9.9-7.2,14.8
					c-15.3-8.7-33.1-15.2-53.1-19.4c6.8-37.8,9.5-61.3,10.1-67.4l-0.5-1.3c0,0,0.2,0.2,0.6,0.6c0.1-0.5,0.1-0.8,0.1-0.8l0.5,1.3
					C183.5,37.7,204.1,56.9,240.1,85.4z"/>
				<path id="XMLID_7_" class="st1" d="M191.4,239.7c7.3,8.1,17.8,13.4,29.5,13.4c-8.5,3.3-17.8,3.4-26.2,0.8
					c-39-10.2-69.8-41.3-89.8-87.9c-16.8-46-29.2-73.3-32.2-79.6l-1.1-0.9c0,0,0.3,0.1,0.8,0.2c-0.2-0.4-0.3-0.6-0.3-0.7l1.1,0.9
					c6.8,1.5,36.2,7.7,84.8,13.9c1.7,0.3,3.3,0.6,4.9,1c-1,5.5-2.1,11.3-3.3,17.5C152.8,168.4,163.1,210.9,191.4,239.7z"/>
			</g>
			<g id="XMLID_6_">
				<path id="XMLID_51_" class="st4" d="M271.6,363.6c3.1-3.2,16.8-5.7,42.6-26.9c24.2-22.7,29.3-44.7,12.7-63.3
					c-7.3-9.3-27.8-15.9-55.6-11.4c-27.8-4.6-48.4,2.1-55.6,11.4c-16.7,18.7-11.5,40.7,12.7,63.3c25.8,21.2,39.5,23.8,42.6,26.9v0.7
					c0,0,0.1-0.1,0.4-0.4c0.2,0.2,0.4,0.4,0.4,0.4V363.6z"/>
				<path id="XMLID_50_" class="st4" d="M469.1,77C469.1,77,469.1,77,469.1,77"/>
				<path id="XMLID_49_" class="st4" d="M468.5,78.5l1-1c0,0-0.3,0.1-0.8,0.2c0.2-0.4,0.3-0.7,0.3-0.7l-1,0.9
					c-6.7,1.9-35.6,9.8-83.8,19c-2.2,0.5-4.3,1.1-6.4,1.7c1.1,6,2.3,12.4,3.7,19.2c7,50.2-3.2,92.7-31.3,121.7
					c-5.9,6.6-13.9,11.4-23.1,12.9c9.7,4.2,20.4,4.1,29.7,0.5c38.4-12.5,67.1-45.4,84.3-93.1C455.2,113,466,85,468.5,78.5z"/>
				<line id="XMLID_48_" class="st4" x1="72.1" y1="84.9" x2="72.1" y2="84.9"/>
				<path id="XMLID_47_" class="st4" d="M72.1,84.9c0,0.1,0.1,0.3,0.3,0.7c-0.5-0.1-0.8-0.2-0.8-0.2l1.1,0.9
					c3,6.3,15.4,33.6,32.2,79.6c20,46.6,50.7,77.7,89.8,87.9c8.4,2.6,17.6,2.5,26.2-0.8c-11.8,0-22.2-5.2-29.5-13.4
					c-28.3-28.8-38.6-71.3-31.8-121.5c1.2-6.1,2.3-12,3.3-17.5c-1.6-0.3-3.3-0.7-4.9-1C109.4,93.5,80,87.3,73.2,85.8L72.1,84.9z"/>
				<path id="XMLID_46_" class="st4" d="M301.1,85.3C283.3,55,273.5,35.6,271,30.4V29c0,0-0.1,0.2-0.4,0.7c-0.2-0.5-0.4-0.7-0.4-0.7
					v1.4c-2.6,5.2-12.3,24.6-30.2,55"/>
				<path id="XMLID_45_" class="st4" d="M235.7,251.9c9.4,4.4,21.2,5.4,34.9,0.9c13.7,4.5,25.6,3.5,35-1"/>
				<path id="XMLID_44_" class="st4" d="M225.9,253.1c3.2,0,6.5-0.4,9.9-1.2"/>
				<path id="XMLID_43_" class="st4" d="M240.1,85.4c-35.9-28.6-56.6-47.7-61.5-52.3l-0.5-1.3c0,0,0,0.3-0.1,0.8
					c-0.4-0.4-0.6-0.6-0.6-0.6l0.5,1.3c-0.6,6.1-3.3,29.5-10.1,67.4"/>
				<path id="XMLID_42_" class="st4" d="M270.6,116.8c-7.5-9.7-16.3-19.1-26.5-28.1c-1.4-1.1-2.7-2.2-4.1-3.2
					c-3.6,6.2-7.6,12.8-11.9,19.9c-2.6,5-5,9.9-7.2,14.8"/>
				<path id="XMLID_41_" class="st4" d="M232.2,250c1.1,0.7,2.3,1.3,3.6,1.9c6.5-1.6,13.3-4.9,19.9-10.2c5.5-0.2,10.4-1.1,14.9-2.5"
					/>
				<path id="XMLID_40_" class="st4" d="M221,120.1c-15.3-8.7-33.1-15.2-53.1-19.4c-1,5.5-2.1,11.3-3.3,17.5
					c-6.8,50.2,3.5,92.7,31.8,121.5c7.3,8.1,17.8,13.4,29.5,13.4c2.2-0.8,4.3-1.9,6.3-3.1"/>
				<path id="XMLID_39_" class="st4" d="M252.9,145.7c-8.8-10-19.6-18.5-32-25.6c-17.5,39.5-19.9,77.4-5.3,110.2
					c3.2,8,8.8,15.1,16.5,19.7c7.7-4.7,14.4-12.5,18.9-23.7"/>
				<path id="XMLID_38_" class="st4" d="M305.6,251.8c5.8,1.4,11.4,1.6,16.6,0.7"/>
				<path id="XMLID_37_" class="st4" d="M372.9,98.7c-6.8-36.8-9.4-59.6-10.1-65.6l0.5-1.3c0,0-0.2,0.2-0.6,0.5
					c-0.1-0.5-0.1-0.8-0.1-0.8l-0.5,1.3c-4.9,4.6-25.4,23.8-61.1,52.4"/>
				<path id="XMLID_36_" class="st4" d="M270.5,239.2c4.6,1.5,9.7,2.4,15.4,2.6c6.6,5.2,13.2,8.4,19.7,10c2.7-1.3,5.3-2.9,7.6-4.7"
					/>
				<path id="XMLID_35_" class="st4" d="M321,121.9c-2.4-5.5-5-11-8-16.6c-4.3-7.1-8.3-13.8-11.9-20c-1.4,1.1-2.8,2.2-4.2,3.4
					c-10.1,9-18.8,18.4-26.3,28"/>
				<path id="XMLID_34_" class="st4" d="M313.2,247.1c2.9,2.3,5.9,4.1,9,5.4c9.1-1.6,17.2-6.3,23.1-12.9
					c28.1-28.9,38.3-71.4,31.3-121.7c-1.3-6.8-2.6-13.2-3.7-19.2c-19.8,5.5-37.2,13.3-51.8,23.1"/>
				<path id="XMLID_33_" class="st4" d="M292.4,223.5c1.9,1.4,3.9,2.7,6,3.9c3.9,8.7,9,15.2,14.8,19.7c5.6-4.4,9.8-10.3,12.4-16.8
					c14.4-32.3,12.3-69.6-4.5-108.4c-12.1,8.1-22.4,17.7-30.5,28.6"/>
				<path id="XMLID_32_" class="st4" d="M251.1,226.2c4.7,5.7,11.1,10.3,19.5,12.9c9.8-3.1,17-8.8,21.8-15.7"/>
				<path id="XMLID_31_" class="st4" d="M290.5,150.5c-4.8-11.6-11.5-22.8-19.9-33.8c-7.2,9.4-13.1,19-17.7,28.9"/>
				<path id="XMLID_30_" class="st4" d="M290.5,150.5c-4.9,6.6-9,13.6-12.3,21.1c-2.6,5.2-4.1,10.9-4.2,16.8
					c-0.4,12.3,5.1,25.3,18.4,35.1c4.5-6.6,6.9-14.2,7-22C300.5,184.1,297.4,167,290.5,150.5z"/>
				<path id="XMLID_29_" class="st4" d="M273.7,188.3c0.1-7.2-1.9-14.1-5.4-20.3c-4.2-8.1-9.4-15.6-15.4-22.4
					c-8.4,18.1-12.2,37-10.8,56.1c0.2,8.8,3.2,17.4,9,24.5c0.2-0.4,0.3-0.8,0.5-1.2C267.1,214.8,273.7,201.3,273.7,188.3z"/>
			</g>
		</g>
	</g>
</g>
</svg>
