<?xml version="1.0" encoding="utf-8"?>
<!-- Generator: Adobe Illustrator 19.0.0, SVG Export Plug-In . SVG Version: 6.00 Build 0)  -->
<svg version="1.1" id="Layer_1" xmlns="http://www.w3.org/2000/svg" xmlns:xlink="http://www.w3.org/1999/xlink" x="0px" y="0px"
	 viewBox="0 0 250 250" style="enable-background:new 0 0 250 250;" xml:space="preserve">
<style type="text/css">
	.st0{clip-path:url(#XMLID_30_);}
	.st1{clip-path:url(#XMLID_31_);}
	.st2{fill:#205E32;stroke:#000000;stroke-width:0.6777;stroke-miterlimit:10;}
	.st3{fill:none;stroke:#000000;stroke-width:0.6777;stroke-miterlimit:10;}
	.st4{fill:#EECDB6;stroke:#000000;stroke-width:0.7482;stroke-miterlimit:10;}
	.st5{fill:#D6AA8D;stroke:#000000;stroke-width:0.7813;stroke-miterlimit:10;}
	.st6{fill:#F8DBBC;stroke:#000000;stroke-width:0.7813;stroke-miterlimit:10;}
	.st7{fill:none;stroke:#000000;stroke-width:0.7482;stroke-miterlimit:10;}
	.st8{fill:#EECDB6;stroke:#000000;stroke-width:0.7813;stroke-miterlimit:10;}
	.st9{fill:#7E7062;stroke:#000000;stroke-width:0.7813;stroke-miterlimit:10;}
	.st10{fill:#938980;stroke:#000000;stroke-width:0.7813;stroke-miterlimit:10;}
	.st11{fill:none;stroke:#000000;stroke-width:0.7813;stroke-miterlimit:10;}
	.st12{display:none;}
</style>
<g id="XMLID_1_">
	<g id="XMLID_2_">
		<g id="XMLID_3_">
			<g id="レイヤー_4_1_">
				<defs>
					<rect id="XMLID_28_" width="250" height="250"/>
				</defs>
				<clipPath id="XMLID_30_">
					<use xlink:href="#XMLID_28_"  style="overflow:visible;"/>
				</clipPath>
				<g id="XMLID_4_" class="st0">
					<g id="XMLID_5_">
						<defs>
							<rect id="XMLID_27_" x="-134.5" y="-22.8" width="498.9" height="357.2"/>
						</defs>
						<clipPath id="XMLID_31_">
							<use xlink:href="#XMLID_27_"  style="overflow:visible;"/>
						</clipPath>
						<g id="XMLID_6_" class="st1">
							<path id="XMLID_26_" class="st2" d="M92.9,122.3c0,0-4.1,1.7-5,8.7c-2.5,3.4-13.9,2.5-13.9,6.3c0,3.9-49.3,16.1-58.1,28.1
								C7.1,177.3-11.9,262.5-14,269.9s-19,79.6-10.1,96.1c8.8,16.5,59.8-30.2,59.8-30.2s-6-31.9-2.6-32.6s5.9-26.3,5.5-28.4
								s7.2-19.6,8.8-18.6c1.7,1.1-2.5,43.1-2.5,43.1s-8.8,20.3-2.5,28s77.1,10.5,87.2,10.2c10.1-0.4,67-5.3,71.2-7.4
								s-15.2-37.2-14.7-39.6c0.4-2.5,3.8-21,3.8-21s13.9,34.7,14.7,39.6c0.8,4.9,1.7,29.4,1.7,29.4s58.6,37.5,57.7,38.9
								c-0.8,1.4-4.2-25.2-5.1-29.1c-0.8-3.9-0.8-22.4,2.5-29.5c3.4-7-9.7-65.9-6.3-77.5s-13.9-40-13.9-43.5s-15.2-46.3-25.7-46.3
								s-13.1-10.3-27.4-10.2c-14.3,0-26.7-15.2-28.2-13.1C158.5,130.5,92.9,122.3,92.9,122.3z"/>
							<path id="XMLID_25_" class="st3" d="M116.3,153.8h16c0,0,0.5,37.2,0,42.4c-0.5,5.3,3.1,44.9,2.8,51.9
								c-0.3,7,1.9,25.9-1.1,33.7c-3,7.7-11.9,30.2-10,33.7l6.9,19.6l1.4,4.6h-16l-9.5-22.8c0,0,4.3-20,6.6-24.5
								c2.3-4.6,14-20.3,7.7-27c-3.9-4.2-2-74-4.9-81.3C116,183.3,117,143.4,116.3,153.8z"/>
							<path id="XMLID_24_" class="st4" d="M93,107c0,0-4.2,4.6-9.1,0c-4.8-4.6-5.5-14-4-20.7s3-5.6,5.1-6.1s6.5,7.2,6.7,6.7
								C92,86.3,93,107,93,107z"/>
							<path id="XMLID_23_" class="st5" d="M94.4,112.8l-1.4,9.6c0,0-1,16.7,13.9,29c8.5,8.1,12.3,3.9,15.3,4.9
								c3,1.1,3.8,2.1,3.8,2.1l4.9-1.8l5.3,0.3c0,0,21.9-20.6,21.8-23.5s2.1-5.1,2.1-5.1L155,126L94.4,112.8"/>
							<path id="XMLID_22_" class="st6" d="M93,92.4c0,0-0.6,17.7,1.9,25.9c8.8,16.7,24.4,21.4,27.6,21.7c8.6,2,18.1,1.8,22.1-0.7
								c0,0,19-9.5,20.9-20.3c1.9-10.8,15-24.4,13.7-45.1s-35-27.2-35-27.2l-41.9,7l-5.3,16L93,92.4z"/>
							<line id="XMLID_21_" class="st7" x1="93" y1="80.1" x2="95.7" y2="77.3"/>
							<path id="XMLID_20_" class="st8" d="M165.5,118c0,0,4.4,3.5,7.6-1.9s5.5-18.5,6.1-22.8s-6.8-2.5-5.6-0.7
								C174.7,94.4,165.5,118,165.5,118z"/>
							<path id="XMLID_19_" class="st9" d="M185.1,69.3c-0.8-19.6-5.3-25.2-18.1-33.1c-12.8-7.9-25.5-8.9-39.8-7
								S98.8,41.8,92.4,49.7C86.1,57.6,85,80.2,85,80.2s4.8,14.7,8.2,17.5c2.5-7,1.2-10.3,2.5-13.7c0.3-0.8,1.9-11.4,6.7-13.7
								c8.8-19.7-3.2-7.4,11.2-16.7c4.2,1.4,7.4,7.5,8.4,7.5c-0.6-4.6-5.5-8.2-5.5-8.2s7.4-3.3,10.3-3s11.2,0,16.4,1.4
								c0,0-0.4,3.2,0.8,3.3c1.3,0.2,5.3,0.5,5.9-0.5c0.6-1.1,6.1,1.4,7.4,4.4c0,0,0.4-2.6-0.4-4.9c16.7,11.9,21,21.7,16.7,29.3
								c-1.1,12.6-1.2,13.7-3.5,23C173.1,101.3,185.6,82.1,185.1,69.3z"/>
							<path id="XMLID_18_" class="st6" d="M124.5,109c0,0,4.4-1.3,6.6,0s3,2.1,5,2.1s2.3-0.8,3.6-1.3c1.3-0.5,5.1,1.9,6.3,1.3
								c1.3-0.5,3.5-4.8,1.3-6.2s-2.5-10.3-2.5-10.3l-3.5-10.8H134l-5.8,12.4l-0.2,1.3c0,0-0.6,4.4-3.5,7.4
								C123.3,107.7,124.5,109,124.5,109z"/>
							<path id="XMLID_17_" class="st10" d="M173.4,87c-5.1-5-30.4-4.1-30.4-4.1l-9.2-0.8c-9.8-6.6-30.9-4.1-30.9-4.1h-8.7v4.1h8.4
								c0,0,3.8,17.1,17.7,16c13.4,0.8,17-11.6,17.1-11.6c0.3,0.3,3.2-0.3,3.2-0.3s1.3,16.3,14.2,16.6c13,0.3,13.5-6.4,16.1-8
								L173.4,87"/>
							<path id="XMLID_16_" class="st5" d="M113.4,119.1c0,0,6.3,2.7,6.6,3.8c0.9,1.1,5.1,3,12,3c6.9,0.9,10.4-1.3,11.7-1.7
								c1.3-0.4,4.4-2.6,4.4-2.6s-15.6,1.3-24.2-1.1C115.3,118.1,122.6,118.5,113.4,119.1z"/>
							<path id="XMLID_15_" class="st5" d="M116.3,119.1c0,0,7.6-5.1,14.5-2.9c0,0,2.7,1.1,3.1,1.2s0.7-0.5,3.8-1.7
								c0,0,8.5,2,10.4,5.5c0,0-10.3-0.6-13.1-1.6L116.3,119.1z"/>
							<path id="XMLID_14_" class="st11" d="M125.9,158.4c3.2,3.4-2.1,103.6,2.9,111.1c5.1,7.5-12.8,41.3-14.7,44.2
								c-1.9,2.9,7.8,27,12.6,28.9"/>
							<path id="XMLID_13_" class="st11" d="M124,166.7c-1.5,1.1,0.4,4.6,0,5.7s5.2,0.8,5.7,0c0.6-0.8,0-5.7,0-5.7H124z"/>
							<path id="XMLID_12_" class="st11" d="M124,172.5c0,0-3.8,10.1-2.2,11.3c1.6,1.1,7,0.6,7,0s0-10.6,0-10.6"/>
							<path id="XMLID_11_" class="st11" d="M121.8,183.8c0.3,1.7,0.4,20.1,1.6,20.1s5.2,1,5.4,0c0.2-1,0-20.1,0-20.1"/>
							<path id="XMLID_10_" class="st11" d="M88,131c-1.5,3-1.9,26.3,13.2,32.7"/>
							<path id="XMLID_9_" class="st11" d="M83.4,133.3C80.2,136,72,162.4,97.9,176"/>
							<path id="XMLID_8_" class="st11" d="M161.9,128.8c3.2,2.3,1.3,26.3-16.9,34.9"/>
							<path id="XMLID_7_" class="st11" d="M167.2,132.6c2.7,3.5,7.5,37-19,52.7"/>
						</g>
					</g>
				</g>
			</g>
			<g id="Layer_6_1_" class="st12">
			</g>
		</g>
	</g>
</g>
</svg>
