<?xml version="1.0" encoding="utf-8"?>
<!-- Generator: Adobe Illustrator 19.0.0, SVG Export Plug-In . SVG Version: 6.00 Build 0)  -->
<svg version="1.1" id="Layer_1" xmlns="http://www.w3.org/2000/svg" xmlns:xlink="http://www.w3.org/1999/xlink" x="0px" y="0px"
	 viewBox="0 0 200 400" style="enable-background:new 0 0 200 400;" xml:space="preserve">
<style type="text/css">
	.st0{fill:#F7931E;stroke:#000000;stroke-miterlimit:10;}
	.st1{display:none;fill:#FFFFFF;stroke:#000000;stroke-miterlimit:10;}
</style>
<rect id="XMLID_1_" class="st0" width="200" height="400"/>
<path id="XMLID_10_" class="st1" d="M700.9,98.6"/>
<g id="XMLID_7_">
	<path id="XMLID_9_" d="M108.4,249.8v83.8c7.5,0.5,14.8,1.8,21.8,3.7c7.7-26.1,33.2-134.8,13.8-279.2c-2.3-49.7-28.5-54.4-34.9-54.8
		v0c0,0-0.2,0-0.7,0v47.2c17.3,6.1,30.6,48.4,30.6,99.6S125.7,243.7,108.4,249.8z"/>
	<path id="XMLID_8_" d="M99.8,333.3v-83.5c-17.3-6.1-30.6-48.4-30.6-99.6s13.4-93.5,30.6-99.6V3.3c-0.4,0-0.7,0-0.7,0v0
		c-6.4,0.4-32.5,5.1-34.9,54.8c-18.9,141.1,5,248.1,13.3,277.3C84.7,334,92.1,333.3,99.8,333.3z"/>
</g>
<g id="XMLID_4_">
	<path id="XMLID_5_" d="M203,396.7c-24.3-24.6-59.6-40.1-98.9-40.1s-74.6,15.5-98.9,40.1c20.5-33.2,57.1-55.3,98.9-55.3
		C145.9,341.5,182.5,363.6,203,396.7z"/>
</g>
<polygon id="XMLID_3_" points="93.3,92.6 84.7,114.2 94.3,114.2 94.3,174.3 94.3,187 94.3,208.6 118.2,208.6 118.2,187 118.2,169.2 
	118.2,92.6 "/>
</svg>
